<?xml version="1.0" encoding="UTF-8" standalone="no"?>
<svg
   xmlns:dc="http://purl.org/dc/elements/1.1/"
   xmlns:cc="http://creativecommons.org/ns#"
   xmlns:rdf="http://www.w3.org/1999/02/22-rdf-syntax-ns#"
   xmlns:svg="http://www.w3.org/2000/svg"
   xmlns="http://www.w3.org/2000/svg"
   xmlns:sodipodi="http://sodipodi.sourceforge.net/DTD/sodipodi-0.dtd"
   xmlns:inkscape="http://www.inkscape.org/namespaces/inkscape"
   width="238"
   height="118"
   viewBox="0 0 238 118"
   fill="none"
   version="1.1"
   id="svg92"
   sodipodi:docname="pro-logo-glow.svg"
   inkscape:version="1.0.2 (e86c870879, 2021-01-15, custom)">
  <metadata
     id="metadata98">
    <rdf:RDF>
      <cc:Work
         rdf:about="">
        <dc:format>image/svg+xml</dc:format>
        <dc:type
           rdf:resource="http://purl.org/dc/dcmitype/StillImage" />
      </cc:Work>
    </rdf:RDF>
  </metadata>
  <defs
     id="defs96" />
  <sodipodi:namedview
     pagecolor="#ffffff"
     bordercolor="#666666"
     borderopacity="1"
     objecttolerance="10"
     gridtolerance="10"
     guidetolerance="10"
     inkscape:pageopacity="0"
     inkscape:pageshadow="2"
     inkscape:window-width="1920"
     inkscape:window-height="1017"
     id="namedview94"
     showgrid="false"
     inkscape:zoom="1.5407649"
     inkscape:cx="235.36207"
     inkscape:cy="25.842225"
     inkscape:window-x="-8"
     inkscape:window-y="-8"
     inkscape:window-maximized="1"
     inkscape:current-layer="svg92" />
  <g
     aria-label="pro!"
     id="text106"
     style="font-size:85.3333px;line-height:1.25;font-family:'Vast Shadow';-inkscape-font-specification:'Vast Shadow'">
    <path
       d="M 21.963764,87.16129 V 40.619643 h -9.166662 v -7.083331 h 18.124992 v 5.541665 q 3.124999,-3.166666 7.58333,-4.958332 4.458332,-1.833332 9.708329,-1.833332 5.749998,0 10.20833,1.749999 4.458331,1.708333 7.499996,4.583332 3.041666,2.833332 4.624998,6.499997 1.583333,3.666665 1.583333,7.58333 0,5.083331 -1.749999,9.08333 -1.708333,3.958331 -4.833331,6.70833 -3.124999,2.749999 -7.458331,4.208332 -4.333331,1.458332 -9.583329,1.458332 -5.416664,0 -9.958329,-1.624999 -4.499998,-1.666666 -7.624997,-4.791665 V 87.16129 h 11.249995 v 6.249997 H 14.880434 V 87.16129 Z M 33.71376,73.661296 q 2.999998,1.666666 6.916663,2.541665 3.958332,0.875 7.95833,0.875 5.499998,0 10.333329,-1.583333 4.833332,-1.541666 8.416663,-4.583331 3.624999,-3.083332 5.708331,-7.624997 2.083333,-4.583331 2.083333,-10.583329 0,-2.583332 -0.75,-5.291664 -0.749999,-2.749999 -2.124999,-5.291665 -1.374999,-2.583332 -3.374999,-4.833331 -1.999999,-2.249999 -4.499998,-3.874999 3.124999,1.416666 5.458331,3.666666 2.374999,2.208332 3.916665,4.833331 1.583333,2.624999 2.374999,5.458331 0.791667,2.791665 0.791667,5.333331 0,5.874998 -1.958333,10.666662 -1.958332,4.791665 -5.666664,8.20833 -3.666665,3.374999 -8.95833,5.208331 -5.249997,1.875 -11.874995,1.875 -1.666666,0 -3.416665,-0.208334 -1.749999,-0.166666 -3.458332,-0.5 -1.708332,-0.333333 -3.333332,-0.791666 -1.583332,-0.458333 -2.874999,-1.041666 v 8.95833 H 33.71376 Z M 30.922094,53.536304 q 0,3.333332 1.374999,5.958331 1.416667,2.624999 3.833332,4.458331 2.416666,1.833333 5.624998,2.833332 3.249998,0.958333 6.95833,0.958333 3.291666,0 5.916664,-1.041666 2.666666,-1.041666 4.541665,-2.958332 1.874999,-1.916666 2.874999,-4.624998 1.041666,-2.749999 1.041666,-6.083331 0,-3.166665 -1.208333,-5.791664 -1.166666,-2.666666 -3.249998,-4.541665 -2.083333,-1.874999 -4.916665,-2.916665 -2.791665,-1.041666 -6.041664,-1.041666 -3.541665,0 -6.624997,1.041666 -3.041666,1.041666 -5.291665,2.999998 -2.249999,1.916666 -3.541665,4.666665 -1.291666,2.708332 -1.291666,6.083331 z m 2.999999,-0.04167 q 0,-2.374999 0.958333,-4.541664 0.999999,-2.166666 2.791665,-3.791666 1.791666,-1.624999 4.291665,-2.583332 2.499999,-0.958333 5.583331,-0.958333 3.291665,0 5.833331,1.166666 2.541666,1.125 3.874998,2.999999 -2.499999,-1.583332 -4.916664,-2.041666 -2.374999,-0.499999 -4.791665,-0.499999 -2.708332,0 -4.916665,0.874999 -2.166665,0.833333 -3.749998,2.249999 -1.541666,1.375 -2.374999,3.208332 -0.833333,1.833333 -0.833333,3.791665 0,3.791665 1.916666,6.541664 1.916666,2.749999 6.208331,4.749998 -2.208333,-0.458333 -4.041665,-1.416666 -1.791666,-0.999999 -3.124999,-2.416665 -1.291666,-1.458333 -1.999999,-3.291666 -0.708333,-1.833332 -0.708333,-4.041665 z M 15.297101,43.536308 h 4.916664 v 1.583333 h -4.916664 z m 29.874987,52.791645 v -6.833331 h 1.666666 v 8.416663 H 17.380433 v -1.583332 z"
       style="font-size:85.3333px;fill:#333333"
       id="path108" />
    <path
       d="m 87.005406,67.494632 h 9.166663 V 40.619643 H 87.005406 V 33.536312 H 105.1304 v 6.958331 q 1.29166,-1.666666 3.08333,-3.166666 1.83333,-1.499999 4.125,-2.624998 2.29166,-1.125 5,-1.75 2.70833,-0.666666 5.79166,-0.666666 0.91667,0 2.29167,0.08333 1.375,0.04167 2.625,0.25 v 8.166663 q -1.45834,-0.333333 -2.875,-0.458333 -1.41667,-0.125 -2.75,-0.125 -3.33333,0 -6.33333,1.083333 -2.95833,1.041666 -5.29167,3.083332 -2.33333,1.999999 -3.83333,4.916665 -1.5,2.916665 -1.83333,6.666664 v 11.541662 h 14.99999 v 6.249997 H 87.005406 Z m 21.041654,-7.791664 q 0,-3.916665 1,-6.999997 1,-3.083332 2.83334,-5.208331 1.875,-2.124999 4.54166,-3.249999 2.66667,-1.124999 6,-1.124999 0.70833,0 1.79166,0.125 1.08334,0.08333 2.25,0.291666 1.20834,0.208333 2.41667,0.541667 1.20833,0.291666 2.16666,0.708333 v -9.83333 h 1.66667 V 46.86964 q -1.16667,-0.5 -2.54166,-0.875 -1.33334,-0.416666 -2.75,-0.708333 -1.375,-0.291666 -2.66667,-0.416666 -1.29167,-0.166667 -2.33333,-0.166667 -3.04167,0 -5.41667,1 -2.33333,1 -3.95833,2.874999 -1.625,1.874999 -2.5,4.583331 -0.83333,2.708332 -0.83333,6.124998 v 5.708331 h -1.66667 z M 89.505405,43.536308 h 4.916665 v 1.583333 h -4.916665 z m 33.624985,33.124986 v -6.83333 h 1.66667 v 8.416663 H 89.505405 v -1.583333 z"
       style="font-size:85.3333px;fill:#333333"
       id="path110" />
    <path
       d="m 140.42206,54.286304 q 0,-4.541665 1.95833,-8.541663 1.95833,-4.041665 5.45833,-6.999997 3.54166,-2.999999 8.45833,-4.708332 4.91666,-1.749999 10.79166,-1.749999 6.16667,0 11,1.666666 4.87499,1.624999 8.20833,4.541665 3.375,2.916665 5.12499,6.916663 1.79167,3.999999 1.79167,8.70833 0,4.541665 -1.95833,8.374997 -1.91667,3.833331 -5.5,6.624997 -3.54166,2.749999 -8.54166,4.333331 -4.95833,1.541666 -11.08333,1.541666 -5.79167,0 -10.54166,-1.708332 -4.70834,-1.75 -8.08333,-4.624998 -3.375,-2.874999 -5.25,-6.583331 -1.83333,-3.749998 -1.83333,-7.791663 z m 6.54166,17.541659 q 4.04166,2.916665 8.91666,4.499998 4.91667,1.583333 11.08333,1.583333 5.75,0 11.04166,-1.583333 5.29167,-1.541666 9.33333,-4.583331 4.04167,-3.041666 6.45833,-7.45833 2.41667,-4.458332 2.41667,-10.166663 0,-2.791665 -0.79167,-5.624998 -0.75,-2.874998 -2.16666,-5.499997 -1.375,-2.624999 -3.375,-4.874998 -2,-2.291666 -4.45833,-3.874999 2.79166,1.25 5.08333,3.291666 2.33333,2.041665 3.95833,4.666664 1.625,2.583333 2.5,5.624998 0.91667,3.041665 0.91667,6.291664 0,4.083332 -1.16667,7.58333 -1.16667,3.458332 -3.25,6.291664 -2.04167,2.791666 -4.91666,4.958332 -2.83334,2.166665 -6.25,3.583331 -3.41667,1.458333 -7.29167,2.208333 -3.83333,0.75 -7.83333,0.75 -3.33333,0 -6.37499,-0.541667 -3.04167,-0.5 -5.66667,-1.499999 -2.58333,-0.958333 -4.66666,-2.374999 -2.08333,-1.416666 -3.5,-3.249999 z m 2.70833,-17.708326 q 0,3.208332 1.20833,5.874998 1.25,2.624999 3.5,4.541664 2.25,1.875 5.375,2.916666 3.16667,1.041666 7,1.041666 3.875,0 7.04166,-1.041666 3.16667,-1.083333 5.45833,-2.958332 2.29167,-1.916666 3.54167,-4.541665 1.25,-2.666666 1.25,-5.833331 0,-3.124999 -1.25,-5.874997 -1.25,-2.791666 -3.5,-4.874998 -2.25,-2.125 -5.41666,-3.333332 -3.125,-1.25 -6.91667,-1.25 -3.95833,0 -7.16666,1.208333 -3.16667,1.166666 -5.41667,3.249999 -2.25,2.041665 -3.5,4.833331 -1.20833,2.791665 -1.20833,6.041664 z m 2.91667,0.166667 q 0,-2.624999 1.04166,-4.916665 1.04167,-2.333332 2.91667,-3.999998 1.91666,-1.708333 4.54166,-2.666666 2.66667,-0.999999 5.875,-0.999999 2.04167,0 3.95833,0.458333 1.91667,0.416666 3.54167,1.249999 1.625,0.833333 2.875,2.041666 1.25,1.166666 2,2.666666 -2.75,-2.499999 -5.75,-3.666666 -2.95833,-1.166666 -6.70833,-1.166666 -2.70833,0 -5,0.875 -2.29167,0.875 -4,2.374999 -1.70833,1.499999 -2.66666,3.499998 -0.95834,2 -0.95834,4.249999 0,1.874999 0.45834,3.499998 0.45833,1.625 1.54166,3.041666 1.125,1.374999 2.95833,2.499999 1.83334,1.124999 4.58334,1.999999 -2.5,-0.166667 -4.58334,-1.041666 -2.04166,-0.916667 -3.54166,-2.374999 -1.45833,-1.458333 -2.29167,-3.416666 -0.79166,-1.958332 -0.79166,-4.208331 z"
       style="font-size:85.3333px;fill:#333333"
       id="path112" />
    <path
       d="m 211.42203,52.494638 q -0.20833,-1.291666 -0.41667,-3.166666 -0.20833,-1.916665 -0.41666,-4.083331 -0.16667,-2.208333 -0.33334,-4.583332 -0.125,-2.416665 -0.25,-4.708331 -0.125,-2.333332 -0.20833,-4.458331 -0.0417,-2.125 -0.0417,-3.791666 v -7.916663 h 12.125 v 7.916663 q 0,3.166666 -0.16667,6.708331 -0.16667,3.541665 -0.45833,6.916664 -0.29167,3.374998 -0.625,6.33333 -0.33333,2.916666 -0.66667,4.833332 z m 2.5,2.916665 h 8.70833 q 1.08333,-7.291663 1.66666,-14.041661 0.58334,-6.749997 0.58334,-13.458327 V 22.11965 h 1.66666 v 5.499998 q 0,3.958332 -0.16666,7.58333 -0.16667,3.624999 -0.5,7.208331 -0.29167,3.541665 -0.75,7.124997 -0.41667,3.583332 -1,7.45833 h -10.20833 z m -4.79167,7.499997 h 13.54166 v 10.833329 h -13.54166 z m 16.54166,13.749994 V 65.244632 h 1.66667 v 12.999995 h -15.70833 v -1.583333 z"
       style="font-size:85.3333px;fill:#333333"
       id="path114" />
  </g>
</svg>
